<svg width="1498" height="444" viewBox="0 0 1498 444" fill="none" xmlns="http://www.w3.org/2000/svg">
    <path fill-rule="evenodd" clip-rule="evenodd"
        d="M0.251999 219.26L0.503998 438.52L50.254 438.779L100.004 439.039L100.147 360.779C100.226 317.737 100.563 267.117 100.897 248.291L101.504 214.063L143.004 290.041L184.504 366.02L221.357 365.77L258.21 365.52L299.857 288.024L341.504 210.529L342.004 324.524L342.504 438.52L392.254 438.779L442.004 439.039V219.529V0.0200195H397.708H353.412L287.958 124.454L222.504 248.887L220.328 244.704C219.132 242.403 189.585 186.52 154.67 120.52L91.187 0.52002L45.593 0.26001L0 0L0.251999 219.26ZM638.75 126.556C575.066 135.237 528.273 171.33 510.003 225.864C502.777 247.431 499.781 274.104 501.818 298.721C505.279 340.551 518.515 370.758 544.914 397.073C569.583 421.663 599.774 435.916 639.005 441.491C651.385 443.251 685.457 443.528 698.03 441.971C737.096 437.135 768.971 422.72 793.716 398.697C820.447 372.748 834.72 340.663 838.19 298.721C839.611 281.554 838.405 260.719 835.063 244.68C828.973 215.458 816.08 191.13 796.004 170.982C771.47 146.361 739.994 131.689 700.703 126.56C686.197 124.667 652.624 124.664 638.75 126.556ZM1333.5 125.648C1331.85 125.888 1325.78 126.758 1320 127.582C1299.42 130.518 1273.23 137.376 1251.5 145.518C1241.73 149.181 1221.34 158.835 1217.59 161.577C1215.79 162.894 1216.33 164.563 1229.46 198.738C1237.02 218.418 1243.38 234.702 1243.59 234.925C1243.81 235.148 1249.27 232.838 1255.74 229.793C1286.45 215.334 1315.32 207.287 1340 206.308C1377.59 204.818 1390.53 213.928 1391.77 242.77L1392.26 254.02H1372.59C1314.83 254.02 1269.17 260.886 1244.5 273.279C1223.95 283.608 1211.56 298.463 1205.89 319.578C1203.13 329.853 1202.77 353.739 1205.21 364.537C1210.43 387.612 1225.5 409.915 1244.5 422.711C1265.18 436.627 1287.27 443.02 1314.68 443.02C1336.27 443.02 1350.02 439.578 1364.51 430.55C1376.06 423.348 1384.13 414.767 1390.57 402.813L1393.96 396.52L1393.98 417.779L1394 439.038L1445.75 438.779L1497.5 438.52V340.02C1497.5 233.258 1497.44 231.724 1491.97 210.411C1479.95 163.637 1449.9 137.195 1398.11 127.841C1388.75 126.149 1381.67 125.692 1361.5 125.478C1347.75 125.332 1335.15 125.409 1333.5 125.648ZM838.004 133.772C838.004 134.185 868.07 202.922 904.817 286.522L971.63 438.52L1017.33 438.78L1063.02 439.04L1065.08 434.78C1066.21 432.437 1096.94 363.695 1133.36 282.02L1199.59 133.52L1145.61 133.261C1105.14 133.067 1091.45 133.296 1090.91 134.176C1090.51 134.822 1074.55 173.327 1055.44 219.744C1036.33 266.16 1020.38 303.633 1020 303.017C1019.62 302.401 1004.5 263.907 986.407 217.476L953.504 133.056L895.754 133.038C863.991 133.028 838.004 133.358 838.004 133.772ZM687.297 208.592C700.692 211.849 712.431 220.839 718.737 232.67C725.895 246.101 729.773 268.574 728.699 290.412C727.031 324.363 717.218 344.738 697.773 354.628C690.639 358.257 681.66 359.99 670.004 359.99C648.98 359.99 635.784 354.152 625.279 340.202C608.596 318.05 606.142 263.668 620.504 234.38C626.372 222.411 637.006 213.372 650.276 209.073C659.702 206.018 675.847 205.809 687.297 208.592ZM1391.99 313.77C1391.96 330.585 1386.89 344.04 1376.66 354.465C1356.22 375.294 1322.63 373.645 1312.76 351.328C1309.55 344.053 1308.57 336.909 1309.96 330.737C1314.01 312.627 1332.91 306.082 1383.75 305.168L1392 305.02L1391.99 313.77Z"
        fill="#E21221" />
</svg>