<svg xmlns="http://www.w3.org/2000/svg" version="1.1" xmlns:xlink="http://www.w3.org/1999/xlink" xmlns:svgjs="http://svgjs.com/svgjs" width="512" height="512" x="0" y="0" viewBox="0 0 544.68 544.68" style="enable-background:new 0 0 512 512" xml:space="preserve" class=""><g><path d="M497.947 225.607H385.162l79.75-79.75c18.249-18.25 18.249-47.84 0-66.09-18.25-18.25-47.841-18.25-66.09 0l-79.75 79.75V46.732C319.072 20.924 298.147 0 272.34 0c-25.808 0-46.732 20.924-46.732 46.732v112.785l-79.75-79.75c-18.25-18.25-47.84-18.25-66.09 0s-18.25 47.84 0 66.09l79.75 79.75H46.732C20.924 225.607 0 246.532 0 272.34c0 25.808 20.924 46.732 46.732 46.732h112.786l-79.75 79.75c-18.25 18.249-18.25 47.84 0 66.09s47.84 18.25 66.09 0l79.75-79.75v112.785c0 25.809 20.924 46.732 46.732 46.732s46.732-20.924 46.732-46.732V385.162l79.75 79.75c18.249 18.249 47.84 18.249 66.09 0 18.25-18.25 18.25-47.841 0-66.09l-79.75-79.75h112.785c25.809 0 46.732-20.925 46.732-46.732.001-25.808-20.923-46.733-46.732-46.733z" fill="#000000" data-original="#000000"></path></g></svg>