<svg xmlns="http://www.w3.org/2000/svg" version="1.1" xmlns:xlink="http://www.w3.org/1999/xlink" xmlns:svgjs="http://svgjs.com/svgjs" width="512" height="512" x="0" y="0" viewBox="0 0 58 58" style="enable-background:new 0 0 512 512" xml:space="preserve" class=""><g><path d="m45.9 47.29-6-12.69c3.62-3.08 5.91-7.67 5.91-12.78C45.81 12.54 38.27 5 29 5s-16.81 7.54-16.81 16.82c0 5.12 2.3 9.7 5.91 12.78l-6 12.69c-.08.18-.07.4.05.56.11.17.31.26.51.24l6.29-.56 3.56 5.21c.12.17.32.26.53.25.2-.02.38-.16.46-.35L29 39.52l5.51 13.13c.07.19.26.32.46.35h.06c.19 0 .36-.09.46-.25l3.56-5.21 6.29.56c.2.01.4-.08.52-.24.11-.17.13-.39.04-.57zM13.31 21.82c0-8.66 7.04-15.69 15.68-15.69 8.66 0 15.69 7.04 15.69 15.69S37.64 37.5 28.99 37.5c-8.64 0-15.68-7.03-15.68-15.68z" fill="#000000" data-original="#000000"></path><path d="M29 9.57c-6.75 0-12.24 5.49-12.24 12.25 0 6.75 5.49 12.24 12.24 12.24 6.76 0 12.25-5.49 12.25-12.24 0-6.76-5.5-12.25-12.25-12.25z" fill="#000000" data-original="#000000"></path></g></svg>