<svg xmlns="http://www.w3.org/2000/svg" version="1.1" xmlns:xlink="http://www.w3.org/1999/xlink"
    xmlns:svgjs="http://svgjs.com/svgjs" width="512" height="512" x="0" y="0" viewBox="0 0 48 48"
    style="enable-background:new 0 0 512 512" xml:space="preserve" class="">
    <g>
        <linearGradient id="a" x1="0" x2="1" y1="0" y2="0" gradientTransform="scale(55.46) rotate(-46.024 14.062 5.647)"
            gradientUnits="userSpaceOnUse">
            <stop offset="0" stop-color="#0056e0"></stop>
            <stop offset=".01" stop-color="#0056e0"></stop>
            <stop offset="1" stop-color="#00e5b8"></stop>
        </linearGradient>
        <path fill="url(#a)"
            d="M44.5 641a3.5 3.5 0 0 0-3.5-3.5H27a1.5 1.5 0 0 0-1.5 1.5v14a3.5 3.5 0 0 0 3.5 3.5h12a3.5 3.5 0 0 0 3.5-3.5zm-22-2a1.5 1.5 0 0 0-1.5-1.5H7a3.5 3.5 0 0 0-3.5 3.5v12a3.5 3.5 0 0 0 3.5 3.5h12a3.5 3.5 0 0 0 3.5-3.5zm0-20a3.5 3.5 0 0 0-3.5-3.5H7a3.5 3.5 0 0 0-3.5 3.5v12a3.5 3.5 0 0 0 3.5 3.5h14a1.5 1.5 0 0 0 1.5-1.5zm22 0a3.5 3.5 0 0 0-3.5-3.5H29a3.5 3.5 0 0 0-3.5 3.5v14a1.5 1.5 0 0 0 1.5 1.5h14a3.5 3.5 0 0 0 3.5-3.5z"
            transform="translate(0 -612)" data-original="url(#a)" class=""></path>
    </g>
</svg>