<svg xmlns="http://www.w3.org/2000/svg" version="1.1" xmlns:xlink="http://www.w3.org/1999/xlink"
    xmlns:svgjs="http://svgjs.com/svgjs" width="512" height="512" x="0" y="0" viewBox="0 0 512 512"
    style="enable-background:new 0 0 512 512" xml:space="preserve" class="">
    <g>
        <path fill="#4cc65e"
            d="M464.883 64.267H175.65c-25.98 0-47.117 21.137-47.117 47.149 0 25.98 21.137 47.117 47.117 47.117h289.232c25.98 0 47.117-21.137 47.117-47.117.001-26.013-21.136-47.149-47.116-47.149z"
            data-original="#4cc65e"></path>
        <path fill="#9be826"
            d="M47.134 64.267C21.145 64.267 0 85.411 0 111.4s21.145 47.133 47.134 47.133 47.133-21.144 47.133-47.133-21.144-47.133-47.133-47.133zM47.134 208.867C21.145 208.867 0 230.011 0 256s21.145 47.133 47.134 47.133S94.267 281.989 94.267 256s-21.144-47.133-47.133-47.133zM47.134 353.467C21.145 353.467 0 374.611 0 400.6s21.145 47.133 47.134 47.133 47.133-21.144 47.133-47.133-21.144-47.133-47.133-47.133z"
            data-original="#9be826"></path>
        <g fill="#4cc65e">
            <path
                d="M94.267 111.4c0-25.989-21.144-47.133-47.133-47.133v94.267c25.989-.001 47.133-21.145 47.133-47.134zM94.267 256c0-25.989-21.144-47.133-47.133-47.133v94.267c25.989-.001 47.133-21.145 47.133-47.134zM94.267 400.6c0-25.989-21.144-47.133-47.133-47.133v94.267c25.989-.001 47.133-21.145 47.133-47.134z"
                fill="#4cc65e" data-original="#4cc65e"></path>
        </g>
        <path fill="#0daa8c"
            d="M464.883 64.267H320.267v94.267h144.616c25.98 0 47.117-21.137 47.117-47.117 0-26.014-21.137-47.15-47.117-47.15z"
            data-original="#0daa8c"></path>
        <path fill="#4cc65e"
            d="M464.883 208.867H175.65c-25.98 0-47.117 21.137-47.117 47.149 0 25.98 21.137 47.117 47.117 47.117h289.232c25.98 0 47.117-21.137 47.117-47.117.001-26.013-21.136-47.149-47.116-47.149z"
            data-original="#4cc65e"></path>
        <path fill="#0daa8c"
            d="M464.883 208.867H320.267v94.267h144.616c25.98 0 47.117-21.137 47.117-47.117 0-26.014-21.137-47.15-47.117-47.15z"
            data-original="#0daa8c"></path>
        <path fill="#4cc65e"
            d="M464.883 353.467H175.65c-25.98 0-47.117 21.137-47.117 47.149 0 25.98 21.137 47.117 47.117 47.117h289.232c25.98 0 47.117-21.137 47.117-47.117.001-26.012-21.136-47.149-47.116-47.149z"
            data-original="#4cc65e"></path>
        <path fill="#0daa8c"
            d="M464.883 353.467H320.267v94.267h144.616c25.98 0 47.117-21.137 47.117-47.117 0-26.013-21.137-47.15-47.117-47.15z"
            data-original="#0daa8c"></path>
    </g>
</svg>